<svg xmlns="http://www.w3.org/2000/svg" xmlns:xlink="http://www.w3.org/1999/xlink" viewBox="0,0,256,256" width="24px" height="24px" fill-rule="nonzero"><g fill="#c13a3a" fill-rule="nonzero" stroke="none" stroke-width="1" stroke-linecap="butt" stroke-linejoin="miter" stroke-miterlimit="10" stroke-dasharray="" stroke-dashoffset="0" font-family="none" font-weight="none" font-size="none" text-anchor="none" style="mix-blend-mode: normal"><g transform="scale(10.66667,10.66667)"><path d="M12,2c-5.512,0 -10,4.488 -10,10c0,5.512 4.488,10 10,10c5.512,0 10,-4.488 10,-10c0,-5.512 -4.488,-10 -10,-10zM15.7,18l-3.7,-1v-1h4zM16,15h-1.65l-1.012,-5h-0.338v5h-1.65l-1.056,-4.004l-0.294,0.004v4h-1l-0.678,-2.995l-0.322,-0.005v3h-1l-1,-5l6,-3l5,1z"></path></g></g></svg>